Patient4_TMGait_0pt6_02_left_07_EMG.mot
version=1
nRows=34
nColumns=33
inDegrees=no
endheader
time	1LAddLong	2LGlutMax	3LGlutMed	4LIliopsoas	5LSemiMemb	6LBicFemLong	7LRecFem	8LVastMed	9LVastLat	10LGasMed	11LTibAnt	12lTibPost	13LPeroneusLong	14LSol	15LExtDigLong	16LFlexDigLong	17RAddLong	18RGlutMax	19RGlutMed	20RIliopsoas	21RSemiMemb	22RBicFemLong	23RRecFem	24RVastMed	25RVastLat	26RGasMed	27RTibAnt	28RTibPost	29RPeroneusLong	30RSol	31RExtDigLong	32RFlexDigLong
8.89	0.023193	0.62088	-0.043182	-0.014343	0.12299	-0.020905	0.37979	0.018463	-0.19394	0.00824	0.080566	0.004578	-0.014343	0.38422	-0.077362	0.72983	0.043488	0.23163	-0.27298	-0.079193	0.088654	0.02243	0.56183	0.22781	0.051575	0.005646	0.11749	-0.006866	-0.17716	-0.14206	0.00351	-0.011597
8.891	0.020599	0.54535	-0.027924	-0.011749	0.058594	-0.047302	0.2861	0.00824	-0.20447	-0.021362	0.30746	0.00473	-0.014038	0.8992	0.1091	0.25421	0.048981	0.25543	-0.24338	-0.19043	0.09964	0.12314	0.55954	0.21286	0.029449	0.014801	0.60638	-0.004272	-0.13519	-0.2359	-0.000916	-0.015259
8.892	0.017242	0.50384	0.049591	0.014191	-0.018616	-0.048676	0.18555	0.0177	-0.17456	0.002747	0.54779	0.01297	0.011597	0.91507	-0.000305	-0.24078	-0.015869	0.29083	-0.22415	-0.25971	0.088043	0.21179	0.60776	0.22354	0.029755	0.024872	-0.17853	-0.005646	0.00824	-0.26367	-0.00061	-0.010986
8.893	0.020905	0.47134	-0.042725	0.021667	-0.03479	-0.039978	0.18097	0.024872	-0.034485	0.011292	0.40527	0.018768	-0.060883	0.66849	0.80078	-0.28153	-0.033875	0.31021	-0.19882	-0.31876	0.099945	0.15106	0.60959	0.15381	0.00946	0.025177	-1.1166	-0.00412	0.032349	-0.28915	0.00061	-0.016479
8.894	0.016327	0.42297	-0.077209	0.019836	-0.053253	-0.040588	0.21576	0.019226	0.016785	-0.010376	0.079803	0.016937	-0.061188	0.32303	0.6604	-0.27802	-0.042114	0.33234	-0.42923	-0.16312	0.040588	0.10056	0.5455	0.16678	0.008698	0.019989	-0.24719	-0.006256	0.01709	-0.24155	0	-0.009155
8.895	0.016327	0.42023	-0.037689	0.010223	-0.039673	-0.030518	0.23941	0.02182	0.12238	-0.00351	-0.14435	0.018158	0.039215	0.052795	0.65033	1.0912	-0.059204	0.37293	-0.67474	-0.099945	-0.00946	0.068054	0.59967	0.12085	0.002136	0.022888	-0.29953	-0.007172	0.22797	-0.20172	-0.001221	-0.018311
8.896	0.018616	0.47531	0.003357	0.008545	0.01236	-0.13687	0.23865	0.00351	0.2417	-0.017395	-0.33188	0.027924	0.054626	-0.27832	0.16098	0.32898	-0.027771	0.4042	-0.62973	0.056763	-0.04425	0.059967	0.61722	0.088348	-0.002136	0.007324	0.21423	-0.014191	0.01236	0.067444	0.004425	-0.018616
8.897	0.007324	0.43213	-0.10712	0.010834	0.000305	-0.098114	0.21835	-0.00412	0.093384	0.039978	-0.43442	0.026093	0.00473	-0.72601	-0.20676	0.23377	0.019836	0.46143	-0.63599	0.2359	-0.13153	0.072479	0.63873	-0.028992	-0.00351	-0.010376	0.26367	-0.013733	-0.14832	0.36362	0.001984	-0.028992
8.898	0.011292	0.31281	-0.10544	0.022888	-0.014191	0.021057	0.18539	-0.003357	-0.12833	0.069885	-0.4039	0.021667	-0.075989	-0.77515	-0.47882	0.089264	0.1004	0.38223	-0.55618	0.1799	-0.17746	0.098572	0.62973	-0.031433	-0.029755	-0.010681	0.21271	-0.012054	-0.13062	0.32974	-0.00061	-0.039825
8.899	0.003967	0.30258	-0.1062	0.011749	-0.006409	0.15121	0.049438	-0.001678	-0.090485	0.066833	-0.27664	0.03006	-0.088043	-0.62653	-0.76965	-0.24323	0.14755	0.35629	-0.55023	0.12268	-0.20783	0.15015	0.70404	-0.033875	-0.030365	-0.001068	-0.087128	-0.011749	-0.034332	0.17639	-0.001221	-0.027161
8.9	0.014954	0.27466	0.044098	0.015411	-0.021362	0.22247	-0.043793	0.007629	-0.022583	0.056458	0.078583	0.024414	-0.097656	-0.70175	-0.58701	-0.47089	0.22324	0.3006	-0.44647	0.1088	-0.2562	0.12222	0.63721	-0.11536	-0.036774	0.00061	-0.061493	-0.009308	0.094452	0.062561	0.00061	-0.016327
8.901	0.021515	0.29877	0.11276	0.02655	-0.028839	0.2095	-0.086823	0.022736	0.045013	-0.01709	0.10254	0.032349	-0.11337	-0.78873	0.011292	-0.26169	0.19577	0.30365	-0.37079	-0.052185	-0.22766	-0.010834	0.62653	-0.13611	-0.015869	-0.00061	0.24567	-0.005646	-0.049438	0.033264	0.000763	-0.015259
8.902	0.019684	0.30426	0.087128	0.018768	-0.042419	0.10361	-0.13046	0.018158	0.032806	-0.10483	0.12497	0.037842	-0.13947	-0.68802	-0.17136	-0.010071	0.15808	0.38238	-0.37323	-0.061798	-0.11688	-0.009766	0.55191	-0.13809	0.011902	0.004425	0.001984	-0.011139	-0.048676	0.006409	0.000458	-0.0177
8.903	0.023041	0.29663	0.036621	-0.016174	-0.042877	0.006104	-0.10742	-0.001221	-0.001221	-0.1059	0.063324	0.0354	-0.032349	-0.39673	-0.14389	-0.12314	0.10849	0.35706	-0.50995	0.021362	-0.02121	-0.076599	0.59036	-0.043793	0.007019	-0.005798	-0.053406	-0.010986	-0.10788	0.020294	0	-0.013428
8.904	0.015869	0.23224	-0.070953	-0.016174	-0.047302	-0.013275	-0.11551	-0.0177	-0.05188	-0.045776	0.10422	0.032654	-0.010223	-0.005493	0.035858	0.037384	0.044708	0.28656	-0.6337	0.064392	0.03479	-0.18112	0.60257	-0.023956	0.007629	-0.005341	0.27222	-0.005646	-0.13046	-0.003204	-0.002899	-0.015106
8.905	0.010223	0.14175	-0.11017	-0.001221	-0.031738	-0.051422	-0.22049	-0.016174	-0.15015	-0.012054	0.10605	0.029907	0.002747	0.23468	0.84427	0.18662	-0.021362	0.3772	-0.54459	0.13718	0.048828	-0.16464	0.5246	0.050049	0.023499	-0.004425	0.48599	-0.004425	-0.17639	-0.055542	0.001984	-0.009003
8.906	0.006256	0.077209	-0.0914	0.006714	-0.03479	-0.072937	-0.32669	-0.018311	-0.19058	-0.04364	-0.009613	0.027771	0.002441	0.42633	1.0849	-0.45487	-0.063171	0.35019	-0.45197	0.21637	0.006714	0.02182	0.49561	0.14374	0.029602	-0.000153	0.38864	-0.003357	-0.18768	-0.16022	0.002899	-0.018616
8.907	0.000153	0.050812	0.13184	0.021973	-0.037231	-0.027924	-0.35385	-0.001068	-0.10849	-0.019226	0.16144	0.026245	-0.015106	0.59555	0.44342	0.14633	-0.10101	0.31235	-0.33646	0.16953	-0.046844	0.14099	0.55634	0.072632	0.011139	0.00412	-0.10162	-0.003662	-0.044403	-0.21286	-0.003967	-0.018311
8.908	-0.005341	-0.016022	0.14191	0.006104	-0.036926	-0.029907	-0.40665	0.001373	-0.013733	0.003967	-0.059814	0.02182	0.008545	0.73471	0.075989	0.41733	-0.10315	0.31525	-0.21057	0.1387	-0.053406	0.1474	0.52597	0.11993	0.014038	0.005951	-0.38605	-0.004425	0.036163	-0.19028	-0.003052	-0.016937
8.909	0.000763	0.001221	0.22537	0.003204	-0.036011	-0.021667	-0.4126	0.012512	0.022278	-0.004272	-0.32715	0.011597	0.009766	0.78217	-0.44556	0.056458	-0.057373	0.16022	-0.31326	0.17532	-0.065613	0.081177	0.51514	0.078735	-0.000763	0.001831	-0.24963	-0.003357	0.077057	-0.13916	-0.002136	-0.023193
8.91	0.010071	-0.0354	0.19608	0.012054	-0.025177	-0.005798	-0.41306	0.012207	0.049896	0.057678	-0.26398	0.002289	-0.065765	0.74539	-0.40741	-0.097198	-0.052795	0.10407	-0.58395	0.13962	-0.0737	0.051727	0.53879	0.086823	-0.033875	0.001831	-0.030212	0.000305	-0.070801	-0.084229	0	-0.019379
8.911	0.004272	-0.045929	0.13855	0.015717	-0.022888	0.042572	-0.3447	-0.004272	0.14023	0.035248	-0.075378	0.002136	-0.052032	0.22293	-0.71762	-0.34912	-0.034637	0.092468	-0.62973	0.092926	-0.034637	0.050659	0.495	0.044708	-0.046387	-0.001984	0.56641	-0.005798	-0.24063	-0.088959	0.00946	-0.0177
8.912	0.009766	0.017548	0.046692	-0.009918	-0.027008	0.089264	-0.27191	-0.014801	0.081177	0.010681	-0.000916	0.007935	0.025482	-0.10925	-0.49728	-0.2945	0.033569	0.038757	-0.48981	0.039673	-0.058289	-0.009155	0.52887	-0.10284	-0.060425	-0.001221	0.99487	-0.003204	-0.28412	-0.10574	0.00061	-0.019684
8.913	0.000305	0.059509	-0.005646	-0.001221	-0.028992	0.090485	-0.27359	-0.019836	-0.058289	-0.035248	0.11383	-0.000458	0.11887	-0.17822	0.30868	0.072937	0.19898	-0.00473	-0.48218	-0.006409	-0.084991	-0.048676	0.59143	-0.16647	-0.062256	-0.00351	1.0744	-0.002747	-0.26443	-0.15045	-0.00061	-0.021667
8.914	-0.002594	0.020447	-0.11047	0.008698	-0.035248	-0.054169	-0.32394	-0.025177	-0.11215	-0.060577	0.11017	0.00412	0.11673	-0.41397	0.0737	1.1952	0.25971	-0.053558	-0.43762	-0.065613	-0.14099	-0.033722	0.5835	-0.22919	-0.074921	0.000153	0.43976	-0.002747	-0.14816	-0.16281	0.000763	-0.015259
8.915	0.010223	0.003204	-0.1329	0.00412	-0.031128	-0.19333	-0.41473	-0.011139	-0.059052	-0.080719	0.082397	0.010834	0.079346	-0.15823	0.001221	-0.098267	0.233	-0.084686	-0.4248	-0.10727	-0.24063	-0.022888	0.53436	-0.30273	-0.058899	-0.000916	-0.086212	-0.004425	-0.085754	-0.17807	-0.000305	-0.018311
8.916	0.016327	-0.041199	-0.13886	0.024261	-0.036163	-0.21713	-0.43747	-0.009155	0.000916	-0.041656	0.30823	-0.010834	-0.0383	0.17853	0.074005	0.091095	0.17578	-0.1648	-0.39261	-0.020905	-0.27634	-0.031128	0.46036	-0.35934	-0.044403	-0.006104	-0.24658	-0.005188	-0.085602	-0.18585	-0.003662	-0.014191
8.917	0.013885	-0.047455	-0.13763	0.015717	-0.054169	-0.15686	-0.46493	-0.011597	0.079498	-0.04715	0.11002	-0.009613	-0.013123	0.15427	-0.23743	-0.8551	0.12756	-0.18173	-0.49377	0.084076	-0.32715	-0.043488	0.46493	-0.36911	-0.028229	-0.007019	0.10361	-0.007935	-0.10757	-0.20294	0.000916	-0.003662
8.918	0.00824	-0.053101	-0.096436	0.031738	-0.066071	-0.059052	-0.37827	-0.009308	0.10376	-0.093384	-0.063782	-0.011749	0.13611	0.10925	-0.20813	0.25314	0.079193	-0.1947	-0.55771	0.079041	-0.32318	-0.069275	0.466	-0.41061	-0.008392	0.002747	-0.021515	-0.015259	-0.025482	-0.24811	0.000458	-0.000916
8.919	0.000305	-0.037384	-0.092773	0.010376	-0.050354	0.040436	-0.23926	-0.013733	0.1355	-0.092468	-0.053253	-0.023651	0.14801	0.079803	0.31494	0.34683	-0.037537	-0.18036	-0.39688	0.019684	-0.24826	-0.055542	0.37811	-0.31647	0.00351	0.012512	-0.62378	-0.005646	0.10574	-0.30075	-0.003204	0.003052
8.92	0.001068	-0.041962	-0.039215	-0.001984	-0.007782	0.20416	-0.1944	-0.002899	0.11932	-0.052185	0.12268	-0.014038	0.014191	-0.3302	1.0756	0.098572	-0.17609	-0.22095	-0.20798	0.003357	-0.13733	0.083008	0.26443	-0.18448	0.033264	0.005798	-0.63751	-0.003967	-0.041351	-0.32623	0.003357	0.001831
8.921	0.002899	-0.031433	-0.047455	-0.005341	0.011444	0.32272	-0.28137	0.006714	0.072632	0.003662	0.2626	-0.015564	-0.09491	-0.37552	0.31616	0.092163	-0.15045	-0.26001	-0.24429	0.066986	-0.11383	0.16327	0.11963	-0.13245	0.041809	-0.000153	0.18082	-0.003967	-0.1738	-0.25726	0.001984	-0.001984
8.922	0.005188	-0.018616	-0.040588	0.002441	0.017853	0.23987	-0.34409	0.019836	0.13641	0.033417	-0.066071	-0.027313	-0.070038	-0.26184	-0.16632	-0.17014	-0.13947	-0.20233	-0.22171	0.046234	-0.049286	0.21896	0.14801	-0.080872	0.059052	-0.001221	0.1831	-0.010071	-0.24017	-0.16815	0.001678	0.001221
8.923	0.00946	-0.030518	-0.026703	0.012665	0.018158	0.18204	-0.3891	0.009766	0.26215	-0.036316	-0.36743	-0.014648	0.06958	-0.12604	-0.86395	-0.068054	-0.11276	-0.20706	-0.18707	-0.07309	-0.010834	0.19699	0.19089	0.07019	0.077209	0.004272	0.022888	-0.002899	-0.2034	-0.15228	0.000153	-0.000458
